<?xml version="1.0" encoding="UTF-8" standalone="no"?>
<!DOCTYPE svg PUBLIC "-//W3C//DTD SVG 1.1//EN"
 "http://www.w3.org/Graphics/SVG/1.1/DTD/svg11.dtd">
<!-- Generated by graphviz version 2.36.0 (20140111.2315)
 -->
<!-- Title: %3 Pages: 1 -->
<svg width="284pt" height="152pt"
 viewBox="0.00 0.00 284.00 152.00" xmlns="http://www.w3.org/2000/svg" xmlns:xlink="http://www.w3.org/1999/xlink">
<g id="graph0" class="graph" transform="scale(1 1) rotate(0) translate(4 148)">
<title>%3</title>
<!-- apple -->
<g id="node1" class="node"><title>apple</title>
<ellipse fill="none" stroke="black" cx="30" cy="-72" rx="29.0172" ry="18"/>
<text text-anchor="middle" x="30" y="-67.8" font-family="Times,serif" font-size="14.00">apple</text>
</g>
<!-- tastiness -->
<g id="node2" class="node"><title>tastiness</title>
<ellipse fill="none" stroke="black" cx="141" cy="-126" rx="40.149" ry="18"/>
<text text-anchor="middle" x="141" y="-121.8" font-family="Times,serif" font-size="14.00">tastiness</text>
</g>
<!-- apple&#45;&gt;tastiness -->
<g id="edge1" class="edge"><title>apple&#45;&gt;tastiness</title>
<path fill="none" stroke="black" d="M53.3208,-83.058C68.0354,-90.3478 87.6258,-100.053 104.459,-108.393"/>
<polygon fill="black" stroke="black" points="102.965,-111.558 113.479,-112.861 106.072,-105.286 102.965,-111.558"/>
</g>
<!-- ease -->
<g id="node4" class="node"><title>ease</title>
<ellipse fill="none" stroke="black" cx="141" cy="-72" rx="27" ry="18"/>
<text text-anchor="middle" x="141" y="-67.8" font-family="Times,serif" font-size="14.00">ease</text>
</g>
<!-- apple&#45;&gt;ease -->
<g id="edge3" class="edge"><title>apple&#45;&gt;ease</title>
<path fill="none" stroke="black" d="M59.3539,-72C72.8557,-72 89.1632,-72 103.571,-72"/>
<polygon fill="black" stroke="black" points="103.659,-75.5001 113.659,-72 103.659,-68.5001 103.659,-75.5001"/>
</g>
<!-- forbidden -->
<g id="node6" class="node"><title>forbidden</title>
<ellipse fill="none" stroke="black" cx="141" cy="-18" rx="44.475" ry="18"/>
<text text-anchor="middle" x="141" y="-13.8" font-family="Times,serif" font-size="14.00">forbidden</text>
</g>
<!-- apple&#45;&gt;forbidden -->
<g id="edge5" class="edge"><title>apple&#45;&gt;forbidden</title>
<path fill="none" stroke="black" d="M53.3208,-60.942C67.4826,-53.926 86.1608,-44.6726 102.551,-36.5527"/>
<polygon fill="black" stroke="black" points="104.479,-39.5038 111.886,-31.9283 101.371,-33.2313 104.479,-39.5038"/>
</g>
<!-- 7 -->
<g id="node3" class="node"><title>7</title>
<ellipse fill="none" stroke="black" cx="249" cy="-126" rx="27" ry="18"/>
<text text-anchor="middle" x="249" y="-121.8" font-family="Times,serif" font-size="14.00">7</text>
</g>
<!-- tastiness&#45;&gt;7 -->
<g id="edge2" class="edge"><title>tastiness&#45;&gt;7</title>
<path fill="none" stroke="black" d="M181.169,-126C191.131,-126 201.793,-126 211.609,-126"/>
<polygon fill="black" stroke="black" points="211.856,-129.5 221.856,-126 211.856,-122.5 211.856,-129.5"/>
</g>
<!-- 8 -->
<g id="node5" class="node"><title>8</title>
<ellipse fill="none" stroke="black" cx="249" cy="-72" rx="27" ry="18"/>
<text text-anchor="middle" x="249" y="-67.8" font-family="Times,serif" font-size="14.00">8</text>
</g>
<!-- ease&#45;&gt;8 -->
<g id="edge4" class="edge"><title>ease&#45;&gt;8</title>
<path fill="none" stroke="black" d="M168.202,-72C181.325,-72 197.422,-72 211.713,-72"/>
<polygon fill="black" stroke="black" points="211.732,-75.5001 221.732,-72 211.732,-68.5001 211.732,-75.5001"/>
</g>
</g>
</svg>
