<?xml version="1.0" encoding="UTF-8" standalone="no"?>
<!DOCTYPE svg PUBLIC "-//W3C//DTD SVG 1.1//EN"
 "http://www.w3.org/Graphics/SVG/1.1/DTD/svg11.dtd">
<!-- Generated by graphviz version 2.36.0 (20140111.2315)
 -->
<!-- Title: %3 Pages: 1 -->
<svg width="242pt" height="134pt"
 viewBox="0.00 0.00 242.00 134.00" xmlns="http://www.w3.org/2000/svg" xmlns:xlink="http://www.w3.org/1999/xlink">
<g id="graph0" class="graph" transform="scale(1 1) rotate(0) translate(4 130)">
<title>%3</title>
<!-- html -->
<g id="node1" class="node"><title>html</title>
<ellipse fill="none" stroke="black" cx="42" cy="-100" rx="42.4684" ry="25.4118"/>
<text text-anchor="middle" x="42" y="-102.8" font-family="Times,serif" font-size="14.00">HTML</text>
<text text-anchor="middle" x="42" y="-88.8" font-family="Times,serif" font-size="14.00">element</text>
</g>
<!-- attributes -->
<g id="node2" class="node"><title>attributes</title>
<polygon fill="none" stroke="black" points="76.0725,-36 7.92746,-36 7.92746,-0 76.0725,-0 76.0725,-36"/>
<text text-anchor="middle" x="42" y="-13.8" font-family="Times,serif" font-size="14.00">attributes</text>
</g>
<!-- html&#45;&gt;attributes -->
<g id="edge1" class="edge"><title>html&#45;&gt;attributes</title>
<path fill="none" stroke="black" d="M42,-74.126C42,-61.8335 42,-47.3059 42,-36.2511"/>
</g>
<!-- properties -->
<g id="node4" class="node"><title>properties</title>
<polygon fill="none" stroke="black" points="234.485,-36 163.515,-36 163.515,-0 234.485,-0 234.485,-36"/>
<text text-anchor="middle" x="199" y="-13.8" font-family="Times,serif" font-size="14.00">properties</text>
</g>
<!-- attributes&#45;&gt;properties -->
<g id="edge3" class="edge"><title>attributes&#45;&gt;properties</title>
<path fill="none" stroke="black" stroke-dasharray="5,2" d="M76.0667,-18C98.6356,-18 128.511,-18 153.158,-18"/>
<polygon fill="black" stroke="black" points="153.365,-21.5001 163.365,-18 153.365,-14.5001 153.365,-21.5001"/>
<text text-anchor="middle" x="119.505" y="-37.8" font-family="Times,serif" font-size="14.00">initializes</text>
<text text-anchor="middle" x="119.505" y="-23.8" font-family="Times,serif" font-size="14.00">(sometimes)</text>
</g>
<!-- dom -->
<g id="node3" class="node"><title>dom</title>
<ellipse fill="none" stroke="black" cx="199" cy="-100" rx="34.1219" ry="25.4118"/>
<text text-anchor="middle" x="199" y="-102.8" font-family="Times,serif" font-size="14.00">DOM</text>
<text text-anchor="middle" x="199" y="-88.8" font-family="Times,serif" font-size="14.00">node</text>
</g>
<!-- dom&#45;&gt;properties -->
<g id="edge2" class="edge"><title>dom&#45;&gt;properties</title>
<path fill="none" stroke="black" d="M199,-74.126C199,-61.8335 199,-47.3059 199,-36.2511"/>
</g>
</g>
</svg>
