<?xml version="1.0" encoding="UTF-8" standalone="no"?>
<!DOCTYPE svg PUBLIC "-//W3C//DTD SVG 1.1//EN"
 "http://www.w3.org/Graphics/SVG/1.1/DTD/svg11.dtd">
<!-- Generated by graphviz version 2.36.0 (20140111.2315)
 -->
<!-- Title: %3 Pages: 1 -->
<svg width="570pt" height="220pt"
 viewBox="0.00 0.00 570.00 220.00" xmlns="http://www.w3.org/2000/svg" xmlns:xlink="http://www.w3.org/1999/xlink">
<g id="graph0" class="graph" transform="scale(1 1) rotate(0) translate(4 216)">
<title>%3</title>
<!-- book -->
<g id="node1" class="node"><title>book</title>
<ellipse fill="none" stroke="black" cx="275" cy="-194" rx="27.1951" ry="18"/>
<text text-anchor="middle" x="275" y="-189.8" font-family="Times,serif" font-size="14.00">book</text>
</g>
<!-- textNode1 -->
<g id="node2" class="node"><title>textNode1</title>
<ellipse fill="none" stroke="black" cx="61" cy="-114" rx="61.3275" ry="25.4118"/>
<text text-anchor="middle" x="61" y="-116.8" font-family="Times,serif" font-size="14.00">textNode</text>
<text text-anchor="middle" x="61" y="-102.8" font-family="Times,serif" font-size="14.00">(whitespace)</text>
</g>
<!-- book&#45;&gt;textNode1 -->
<g id="edge1" class="edge"><title>book&#45;&gt;textNode1</title>
<path fill="none" stroke="black" d="M251.691,-184.504C219.295,-172.696 159.686,-150.97 115.707,-134.94"/>
<polygon fill="black" stroke="black" points="116.889,-131.646 106.295,-131.509 114.492,-138.222 116.889,-131.646"/>
</g>
<!-- title -->
<g id="node3" class="node"><title>title</title>
<ellipse fill="none" stroke="black" cx="168" cy="-114" rx="27" ry="18"/>
<text text-anchor="middle" x="168" y="-109.8" font-family="Times,serif" font-size="14.00">title</text>
</g>
<!-- book&#45;&gt;title -->
<g id="edge2" class="edge"><title>book&#45;&gt;title</title>
<path fill="none" stroke="black" d="M257.331,-180.12C240.061,-167.531 213.573,-148.221 193.919,-133.894"/>
<polygon fill="black" stroke="black" points="195.838,-130.962 185.695,-127.899 191.714,-136.618 195.838,-130.962"/>
</g>
<!-- textNode3 -->
<g id="node5" class="node"><title>textNode3</title>
<ellipse fill="none" stroke="black" cx="275" cy="-114" rx="61.3275" ry="25.4118"/>
<text text-anchor="middle" x="275" y="-116.8" font-family="Times,serif" font-size="14.00">textNode</text>
<text text-anchor="middle" x="275" y="-102.8" font-family="Times,serif" font-size="14.00">(whitespace)</text>
</g>
<!-- book&#45;&gt;textNode3 -->
<g id="edge4" class="edge"><title>book&#45;&gt;textNode3</title>
<path fill="none" stroke="black" d="M275,-175.689C275,-168.076 275,-158.846 275,-149.907"/>
<polygon fill="black" stroke="black" points="278.5,-149.66 275,-139.66 271.5,-149.66 278.5,-149.66"/>
</g>
<!-- author -->
<g id="node6" class="node"><title>author</title>
<ellipse fill="none" stroke="black" cx="388" cy="-114" rx="32.5477" ry="18"/>
<text text-anchor="middle" x="388" y="-109.8" font-family="Times,serif" font-size="14.00">author</text>
</g>
<!-- book&#45;&gt;author -->
<g id="edge5" class="edge"><title>book&#45;&gt;author</title>
<path fill="none" stroke="black" d="M293.155,-180.468C311.17,-168.033 339.031,-148.801 359.903,-134.394"/>
<polygon fill="black" stroke="black" points="362.13,-137.11 368.371,-128.549 358.153,-131.349 362.13,-137.11"/>
</g>
<!-- textNode5 -->
<g id="node8" class="node"><title>textNode5</title>
<ellipse fill="none" stroke="black" cx="501" cy="-114" rx="61.3275" ry="25.4118"/>
<text text-anchor="middle" x="501" y="-116.8" font-family="Times,serif" font-size="14.00">textNode</text>
<text text-anchor="middle" x="501" y="-102.8" font-family="Times,serif" font-size="14.00">(whitespace)</text>
</g>
<!-- book&#45;&gt;textNode5 -->
<g id="edge7" class="edge"><title>book&#45;&gt;textNode5</title>
<path fill="none" stroke="black" d="M298.751,-184.849C329.005,-174.46 382.902,-155.936 429,-140 434.237,-138.19 439.687,-136.303 445.14,-134.413"/>
<polygon fill="black" stroke="black" points="446.614,-137.606 454.915,-131.023 444.32,-130.993 446.614,-137.606"/>
</g>
<!-- textNode2 -->
<g id="node4" class="node"><title>textNode2</title>
<ellipse fill="none" stroke="black" cx="168" cy="-26" rx="62.5803" ry="25.4118"/>
<text text-anchor="middle" x="168" y="-28.8" font-family="Times,serif" font-size="14.00">textNode</text>
<text text-anchor="middle" x="168" y="-14.8" font-family="Times,serif" font-size="14.00">(Naiv Super)</text>
</g>
<!-- title&#45;&gt;textNode2 -->
<g id="edge3" class="edge"><title>title&#45;&gt;textNode2</title>
<path fill="none" stroke="black" d="M168,-95.5966C168,-85.9016 168,-73.4771 168,-61.8723"/>
<polygon fill="black" stroke="black" points="171.5,-61.547 168,-51.547 164.5,-61.5471 171.5,-61.547"/>
</g>
<!-- textNode4 -->
<g id="node7" class="node"><title>textNode4</title>
<ellipse fill="none" stroke="black" cx="388" cy="-26" rx="62.2399" ry="25.4118"/>
<text text-anchor="middle" x="388" y="-28.8" font-family="Times,serif" font-size="14.00">textNode</text>
<text text-anchor="middle" x="388" y="-14.8" font-family="Times,serif" font-size="14.00">(Erlend Loe)</text>
</g>
<!-- author&#45;&gt;textNode4 -->
<g id="edge6" class="edge"><title>author&#45;&gt;textNode4</title>
<path fill="none" stroke="black" d="M388,-95.5966C388,-85.9016 388,-73.4771 388,-61.8723"/>
<polygon fill="black" stroke="black" points="391.5,-61.547 388,-51.547 384.5,-61.5471 391.5,-61.547"/>
</g>
</g>
</svg>
