<?xml version="1.0" encoding="UTF-8" standalone="no"?>
<!DOCTYPE svg PUBLIC "-//W3C//DTD SVG 1.1//EN"
 "http://www.w3.org/Graphics/SVG/1.1/DTD/svg11.dtd">
<!-- Generated by graphviz version 2.36.0 (20140111.2315)
 -->
<!-- Title: %3 Pages: 1 -->
<svg width="251pt" height="148pt"
 viewBox="0.00 0.00 251.00 148.00" xmlns="http://www.w3.org/2000/svg" xmlns:xlink="http://www.w3.org/1999/xlink">
<g id="graph0" class="graph" transform="scale(1 1) rotate(0) translate(4 144)">
<title>%3</title>
<!-- CSSsel -->
<g id="node1" class="node"><title>CSSsel</title>
<ellipse fill="none" stroke="grey" cx="124" cy="-114" rx="42.1425" ry="25.4118"/>
<text text-anchor="middle" x="124" y="-116.8" font-family="Times,serif" font-size="14.00" fill="grey">CSS</text>
<text text-anchor="middle" x="124" y="-102.8" font-family="Times,serif" font-size="14.00" fill="grey">selector</text>
</g>
<!-- desc -->
<g id="node2" class="node"><title>desc</title>
<ellipse fill="none" stroke="grey" cx="59" cy="-26" rx="59.23" ry="25.4118"/>
<text text-anchor="middle" x="59" y="-28.8" font-family="Times,serif" font-size="14.00" fill="grey">element</text>
<text text-anchor="middle" x="59" y="-14.8" font-family="Times,serif" font-size="14.00" fill="grey">descriptions</text>
</g>
<!-- CSSsel&#45;&gt;desc -->
<g id="edge1" class="edge"><title>CSSsel&#45;&gt;desc</title>
<path fill="none" stroke="grey" d="M106.922,-90.4045C99.5614,-80.6659 90.8269,-69.1095 82.844,-58.5474"/>
<polygon fill="grey" stroke="grey" points="85.4654,-56.211 76.6435,-50.3437 79.881,-60.4318 85.4654,-56.211"/>
</g>
<!-- combinators -->
<g id="node3" class="node"><title>combinators</title>
<ellipse fill="none" stroke="black" cx="190" cy="-26" rx="53.2368" ry="18"/>
<text text-anchor="middle" x="190" y="-21.8" font-family="Times,serif" font-size="14.00">combinators</text>
</g>
<!-- CSSsel&#45;&gt;combinators -->
<g id="edge2" class="edge"><title>CSSsel&#45;&gt;combinators</title>
<path fill="none" stroke="grey" d="M141.341,-90.4045C150.464,-78.5166 161.666,-63.92 171.021,-51.7299"/>
<polygon fill="grey" stroke="grey" points="173.843,-53.8019 177.155,-43.7379 168.29,-49.5401 173.843,-53.8019"/>
</g>
</g>
</svg>
