<?xml version="1.0" encoding="UTF-8" standalone="no"?>
<!DOCTYPE svg PUBLIC "-//W3C//DTD SVG 1.1//EN"
 "http://www.w3.org/Graphics/SVG/1.1/DTD/svg11.dtd">
<!-- Generated by graphviz version 2.36.0 (20140111.2315)
 -->
<!-- Title: %3 Pages: 1 -->
<svg width="714pt" height="126pt"
 viewBox="0.00 0.00 714.00 126.00" xmlns="http://www.w3.org/2000/svg" xmlns:xlink="http://www.w3.org/1999/xlink">
<g id="graph0" class="graph" transform="scale(1 1) rotate(0) translate(4 122)">
<title>%3</title>
<!-- important -->
<g id="node1" class="node"><title>important</title>
<ellipse fill="none" stroke="black" stroke-dasharray="5,2" cx="62" cy="-93" rx="53.2029" ry="25.4118"/>
<text text-anchor="middle" x="62" y="-95.8" font-family="Times,serif" font-size="14.00">rule with</text>
<text text-anchor="middle" x="62" y="-81.8" font-family="Times,serif" font-size="14.00">!important</text>
</g>
<!-- inline -->
<g id="node2" class="node"><title>inline</title>
<ellipse fill="none" stroke="black" stroke-dasharray="5,2" cx="223" cy="-93" rx="30.4949" ry="18"/>
<text text-anchor="middle" x="223" y="-88.8" font-family="Times,serif" font-size="14.00">inline</text>
</g>
<!-- important&#45;&gt;inline -->
<g id="edge1" class="edge"><title>important&#45;&gt;inline</title>
<path fill="none" stroke="black" stroke-dasharray="5,2" d="M115.503,-93C137.379,-93 162.35,-93 182.611,-93"/>
<polygon fill="black" stroke="black" points="182.736,-96.5001 192.736,-93 182.736,-89.5001 182.736,-96.5001"/>
</g>
<!-- importantfoo -->
<g id="node7" class="node"><title>importantfoo</title>
<polygon fill="none" stroke="black" stroke-dasharray="5,2" points="123.407,-50 0.592738,-50 0.592738,-14 123.407,-14 123.407,-50"/>
<text text-anchor="middle" x="62" y="-34.8" font-family="Times,serif" font-size="14.00">Considered a hack.</text>
<text text-anchor="middle" x="62" y="-20.8" font-family="Times,serif" font-size="14.00">Use as last resort</text>
</g>
<!-- important&#45;&gt;importantfoo -->
<g id="edge6" class="edge"><title>important&#45;&gt;importantfoo</title>
<path fill="none" stroke="black" stroke-dasharray="5,2" d="M62,-67.5337C62,-61.7256 62,-55.9175 62,-50.1094"/>
</g>
<!-- styles -->
<g id="node3" class="node"><title>styles</title>
<ellipse fill="none" stroke="black" cx="370" cy="-93" rx="30.0035" ry="18"/>
<text text-anchor="middle" x="370" y="-88.8" font-family="Times,serif" font-size="14.00">styles</text>
</g>
<!-- inline&#45;&gt;styles -->
<g id="edge2" class="edge"><title>inline&#45;&gt;styles</title>
<path fill="none" stroke="black" stroke-dasharray="5,2" d="M253.343,-93C275.257,-93 305.442,-93 329.48,-93"/>
<polygon fill="black" stroke="black" points="329.701,-96.5001 339.701,-93 329.701,-89.5001 329.701,-96.5001"/>
</g>
<!-- inlinefoo -->
<g id="node6" class="node"><title>inlinefoo</title>
<polygon fill="none" stroke="black" stroke-dasharray="5,2" points="285.936,-57 160.064,-57 160.064,-21 285.936,-21 285.936,-57"/>
<text text-anchor="middle" x="223" y="-41.8" font-family="Times,serif" font-size="14.00">Trumps everything.</text>
<text text-anchor="middle" x="223" y="-27.8" font-family="Times,serif" font-size="14.00">Be careful!</text>
</g>
<!-- inline&#45;&gt;inlinefoo -->
<g id="edge5" class="edge"><title>inline&#45;&gt;inlinefoo</title>
<path fill="none" stroke="black" stroke-dasharray="5,2" d="M223,-74.7902C223,-68.907 223,-63.0238 223,-57.1406"/>
</g>
<!-- inherit -->
<g id="node4" class="node"><title>inherit</title>
<ellipse fill="none" stroke="black" cx="519" cy="-93" rx="33.3839" ry="18"/>
<text text-anchor="middle" x="519" y="-88.8" font-family="Times,serif" font-size="14.00">inherit</text>
</g>
<!-- styles&#45;&gt;inherit -->
<g id="edge3" class="edge"><title>styles&#45;&gt;inherit</title>
<path fill="none" stroke="black" d="M400.394,-93C421.852,-93 451.268,-93 475.313,-93"/>
<polygon fill="black" stroke="black" points="475.591,-96.5001 485.591,-93 475.591,-89.5001 475.591,-96.5001"/>
</g>
<!-- stylesfoo -->
<g id="node8" class="node"><title>stylesfoo</title>
<polygon fill="none" stroke="black" points="417.838,-57 322.162,-57 322.162,-7 417.838,-7 417.838,-57"/>
<text text-anchor="middle" x="370" y="-41.8" font-family="Times,serif" font-size="14.00">Sorted first by</text>
<text text-anchor="middle" x="370" y="-27.8" font-family="Times,serif" font-size="14.00">specificity,</text>
<text text-anchor="middle" x="370" y="-13.8" font-family="Times,serif" font-size="14.00">then by order</text>
</g>
<!-- styles&#45;&gt;stylesfoo -->
<g id="edge7" class="edge"><title>styles&#45;&gt;stylesfoo</title>
<path fill="none" stroke="black" d="M370,-74.8497C370,-68.9857 370,-63.1218 370,-57.2578"/>
</g>
<!-- defaults -->
<g id="node5" class="node"><title>defaults</title>
<ellipse fill="none" stroke="black" cx="663" cy="-93" rx="43.4047" ry="25.4118"/>
<text text-anchor="middle" x="663" y="-95.8" font-family="Times,serif" font-size="14.00">browser</text>
<text text-anchor="middle" x="663" y="-81.8" font-family="Times,serif" font-size="14.00">defaults</text>
</g>
<!-- inherit&#45;&gt;defaults -->
<g id="edge4" class="edge"><title>inherit&#45;&gt;defaults</title>
<path fill="none" stroke="black" d="M552.222,-93C569.146,-93 590.311,-93 609.529,-93"/>
<polygon fill="black" stroke="black" points="609.666,-96.5001 619.666,-93 609.666,-89.5001 609.666,-96.5001"/>
</g>
<!-- inheritfoo -->
<g id="node9" class="node"><title>inheritfoo</title>
<polygon fill="none" stroke="black" points="583.518,-57 454.482,-57 454.482,-21 583.518,-21 583.518,-57"/>
<text text-anchor="middle" x="519" y="-41.8" font-family="Times,serif" font-size="14.00">Some styles are</text>
<text text-anchor="middle" x="519" y="-27.8" font-family="Times,serif" font-size="14.00">inherited to children</text>
</g>
<!-- inherit&#45;&gt;inheritfoo -->
<g id="edge8" class="edge"><title>inherit&#45;&gt;inheritfoo</title>
<path fill="none" stroke="black" d="M519,-74.7902C519,-68.907 519,-63.0238 519,-57.1406"/>
</g>
<!-- defaultsfoo -->
<g id="node10" class="node"><title>defaultsfoo</title>
<polygon fill="none" stroke="black" points="705.038,-50 620.962,-50 620.962,-0 705.038,-0 705.038,-50"/>
<text text-anchor="middle" x="663" y="-34.8" font-family="Times,serif" font-size="14.00">Often reset</text>
<text text-anchor="middle" x="663" y="-20.8" font-family="Times,serif" font-size="14.00">so we have</text>
<text text-anchor="middle" x="663" y="-6.8" font-family="Times,serif" font-size="14.00">total control</text>
</g>
<!-- defaults&#45;&gt;defaultsfoo -->
<g id="edge9" class="edge"><title>defaults&#45;&gt;defaultsfoo</title>
<path fill="none" stroke="black" d="M663,-67.6079C663,-61.8167 663,-56.0256 663,-50.2344"/>
</g>
</g>
</svg>
