<?xml version="1.0" encoding="UTF-8" standalone="no"?>
<!DOCTYPE svg PUBLIC "-//W3C//DTD SVG 1.1//EN"
 "http://www.w3.org/Graphics/SVG/1.1/DTD/svg11.dtd">
<!-- Generated by graphviz version 2.36.0 (20140111.2315)
 -->
<!-- Title: %3 Pages: 1 -->
<svg width="201pt" height="152pt"
 viewBox="0.00 0.00 201.00 152.00" xmlns="http://www.w3.org/2000/svg" xmlns:xlink="http://www.w3.org/1999/xlink">
<g id="graph0" class="graph" transform="scale(1 1) rotate(0) translate(4 148)">
<title>%3</title>
<g id="clust1" class="cluster"><title>cluster_old</title>
<polygon fill="none" stroke="black" points="3,-8 3,-136 83,-136 83,-8 3,-8"/>
<text text-anchor="middle" x="43" y="-120.8" font-family="Times,serif" font-size="14.00">Old HTML</text>
</g>
<g id="clust2" class="cluster"><title>cluster_new</title>
<polygon fill="none" stroke="black" points="103,-8 103,-136 188,-136 188,-8 103,-8"/>
<text text-anchor="middle" x="145.5" y="-120.8" font-family="Times,serif" font-size="14.00">New HTML</text>
</g>
<!-- bold -->
<g id="node1" class="node"><title>bold</title>
<ellipse fill="none" stroke="black" cx="43" cy="-88" rx="27" ry="18"/>
<text text-anchor="middle" x="43" y="-83.8" font-family="Times,serif" font-size="14.00">bold</text>
</g>
<!-- strong -->
<g id="node3" class="node"><title>strong</title>
<ellipse fill="none" stroke="black" cx="145" cy="-88" rx="32.4324" ry="18"/>
<text text-anchor="middle" x="145" y="-83.8" font-family="Times,serif" font-size="14.00">strong</text>
</g>
<!-- bold&#45;&gt;strong -->
<g id="edge1" class="edge"><title>bold&#45;&gt;strong</title>
<path fill="none" stroke="black" d="M70.0128,-88C79.924,-88 91.4831,-88 102.479,-88"/>
<polygon fill="black" stroke="black" points="102.776,-91.5001 112.776,-88 102.776,-84.5001 102.776,-91.5001"/>
</g>
<!-- i -->
<g id="node2" class="node"><title>i</title>
<ellipse fill="none" stroke="black" cx="43" cy="-34" rx="27" ry="18"/>
<text text-anchor="middle" x="43" y="-29.8" font-family="Times,serif" font-size="14.00">i</text>
</g>
<!-- em -->
<g id="node4" class="node"><title>em</title>
<ellipse fill="none" stroke="black" cx="145" cy="-34" rx="27" ry="18"/>
<text text-anchor="middle" x="145" y="-29.8" font-family="Times,serif" font-size="14.00">em</text>
</g>
<!-- i&#45;&gt;em -->
<g id="edge2" class="edge"><title>i&#45;&gt;em</title>
<path fill="none" stroke="black" d="M70.0128,-34C81.4964,-34 95.1924,-34 107.661,-34"/>
<polygon fill="black" stroke="black" points="107.77,-37.5001 117.77,-34 107.77,-30.5001 107.77,-37.5001"/>
</g>
</g>
</svg>
