<?xml version="1.0" encoding="UTF-8" standalone="no"?>
<!DOCTYPE svg PUBLIC "-//W3C//DTD SVG 1.1//EN"
 "http://www.w3.org/Graphics/SVG/1.1/DTD/svg11.dtd">
<!-- Generated by graphviz version 2.36.0 (20140111.2315)
 -->
<!-- Title: %3 Pages: 1 -->
<svg width="476pt" height="152pt"
 viewBox="0.00 0.00 476.00 152.00" xmlns="http://www.w3.org/2000/svg" xmlns:xlink="http://www.w3.org/1999/xlink">
<g id="graph0" class="graph" transform="scale(1 1) rotate(0) translate(4 148)">
<title>%3</title>
<!-- basket -->
<g id="node1" class="node"><title>basket</title>
<ellipse fill="none" stroke="black" cx="33" cy="-99" rx="32.8994" ry="18"/>
<text text-anchor="middle" x="33" y="-94.8" font-family="Times,serif" font-size="14.00">basket</text>
</g>
<!-- price -->
<g id="node2" class="node"><title>price</title>
<ellipse fill="none" stroke="black" cx="141" cy="-126" rx="27.5633" ry="18"/>
<text text-anchor="middle" x="141" y="-121.8" font-family="Times,serif" font-size="14.00">price</text>
</g>
<!-- basket&#45;&gt;price -->
<g id="edge1" class="edge"><title>basket&#45;&gt;price</title>
<path fill="none" stroke="black" d="M62.965,-106.378C75.8606,-109.663 91.1646,-113.561 104.721,-117.014"/>
<polygon fill="black" stroke="black" points="104.123,-120.473 114.678,-119.55 105.851,-113.69 104.123,-120.473"/>
</g>
<!-- children -->
<g id="node4" class="node"><title>children</title>
<ellipse fill="none" stroke="black" cx="141" cy="-72" rx="39.1627" ry="18"/>
<text text-anchor="middle" x="141" y="-67.8" font-family="Times,serif" font-size="14.00">children</text>
</g>
<!-- basket&#45;&gt;children -->
<g id="edge3" class="edge"><title>basket&#45;&gt;children</title>
<path fill="none" stroke="black" d="M62.965,-91.6221C73.3004,-88.9895 85.1829,-85.9628 96.4728,-83.0871"/>
<polygon fill="black" stroke="black" points="97.3611,-86.4727 106.188,-80.6126 95.6332,-79.6893 97.3611,-86.4727"/>
</g>
<!-- 15 -->
<g id="node3" class="node"><title>15</title>
<ellipse fill="none" stroke="black" cx="251" cy="-126" rx="27" ry="18"/>
<text text-anchor="middle" x="251" y="-121.8" font-family="Times,serif" font-size="14.00">15</text>
</g>
<!-- price&#45;&gt;15 -->
<g id="edge2" class="edge"><title>price&#45;&gt;15</title>
<path fill="none" stroke="black" d="M168.974,-126C182.448,-126 198.947,-126 213.531,-126"/>
<polygon fill="black" stroke="black" points="213.742,-129.5 223.742,-126 213.742,-122.5 213.742,-129.5"/>
</g>
<!-- apple -->
<g id="node5" class="node"><title>apple</title>
<ellipse fill="none" stroke="black" cx="251" cy="-72" rx="29.0172" ry="18"/>
<text text-anchor="middle" x="251" y="-67.8" font-family="Times,serif" font-size="14.00">apple</text>
</g>
<!-- children&#45;&gt;apple -->
<g id="edge4" class="edge"><title>children&#45;&gt;apple</title>
<path fill="none" stroke="black" d="M180.381,-72C190.461,-72 201.335,-72 211.424,-72"/>
<polygon fill="black" stroke="black" points="211.589,-75.5001 221.589,-72 211.589,-68.5001 211.589,-75.5001"/>
</g>
<!-- banana -->
<g id="node6" class="node"><title>banana</title>
<ellipse fill="none" stroke="black" cx="251" cy="-18" rx="35.2956" ry="18"/>
<text text-anchor="middle" x="251" y="-13.8" font-family="Times,serif" font-size="14.00">banana</text>
</g>
<!-- children&#45;&gt;banana -->
<g id="edge5" class="edge"><title>children&#45;&gt;banana</title>
<path fill="none" stroke="black" d="M168.144,-58.9281C182.516,-51.7421 200.513,-42.7435 215.969,-35.0153"/>
<polygon fill="black" stroke="black" points="217.831,-37.9977 225.21,-30.395 214.7,-31.7367 217.831,-37.9977"/>
</g>
<!-- aprice -->
<g id="node7" class="node"><title>aprice</title>
<ellipse fill="none" stroke="black" cx="350" cy="-72" rx="27.5633" ry="18"/>
<text text-anchor="middle" x="350" y="-67.8" font-family="Times,serif" font-size="14.00">price</text>
</g>
<!-- apple&#45;&gt;aprice -->
<g id="edge6" class="edge"><title>apple&#45;&gt;aprice</title>
<path fill="none" stroke="black" d="M280.317,-72C290.215,-72 301.478,-72 311.979,-72"/>
<polygon fill="black" stroke="black" points="312.147,-75.5001 322.147,-72 312.147,-68.5001 312.147,-75.5001"/>
</g>
<!-- bprice -->
<g id="node9" class="node"><title>bprice</title>
<ellipse fill="none" stroke="black" cx="350" cy="-18" rx="27.5633" ry="18"/>
<text text-anchor="middle" x="350" y="-13.8" font-family="Times,serif" font-size="14.00">price</text>
</g>
<!-- banana&#45;&gt;bprice -->
<g id="edge8" class="edge"><title>banana&#45;&gt;bprice</title>
<path fill="none" stroke="black" d="M286.199,-18C294.575,-18 303.576,-18 312.073,-18"/>
<polygon fill="black" stroke="black" points="312.113,-21.5001 322.113,-18 312.113,-14.5001 312.113,-21.5001"/>
</g>
<!-- 8 -->
<g id="node8" class="node"><title>8</title>
<ellipse fill="none" stroke="black" cx="441" cy="-72" rx="27" ry="18"/>
<text text-anchor="middle" x="441" y="-67.8" font-family="Times,serif" font-size="14.00">8</text>
</g>
<!-- aprice&#45;&gt;8 -->
<g id="edge7" class="edge"><title>aprice&#45;&gt;8</title>
<path fill="none" stroke="black" d="M378.187,-72C386.255,-72 395.222,-72 403.768,-72"/>
<polygon fill="black" stroke="black" points="403.895,-75.5001 413.895,-72 403.895,-68.5001 403.895,-75.5001"/>
</g>
<!-- 9 -->
<g id="node10" class="node"><title>9</title>
<ellipse fill="none" stroke="black" cx="441" cy="-18" rx="27" ry="18"/>
<text text-anchor="middle" x="441" y="-13.8" font-family="Times,serif" font-size="14.00">9</text>
</g>
<!-- bprice&#45;&gt;9 -->
<g id="edge9" class="edge"><title>bprice&#45;&gt;9</title>
<path fill="none" stroke="black" d="M378.187,-18C386.255,-18 395.222,-18 403.768,-18"/>
<polygon fill="black" stroke="black" points="403.895,-21.5001 413.895,-18 403.895,-14.5001 403.895,-21.5001"/>
</g>
</g>
</svg>
