<?xml version="1.0" encoding="UTF-8" standalone="no"?>
<!DOCTYPE svg PUBLIC "-//W3C//DTD SVG 1.1//EN"
 "http://www.w3.org/Graphics/SVG/1.1/DTD/svg11.dtd">
<!-- Generated by graphviz version 2.36.0 (20140111.2315)
 -->
<!-- Title: %3 Pages: 1 -->
<svg width="274pt" height="98pt"
 viewBox="0.00 0.00 274.00 98.00" xmlns="http://www.w3.org/2000/svg" xmlns:xlink="http://www.w3.org/1999/xlink">
<g id="graph0" class="graph" transform="scale(1 1) rotate(0) translate(4 94)">
<title>%3</title>
<!-- HTML -->
<g id="node1" class="node"><title>HTML</title>
<ellipse fill="none" stroke="black" cx="35" cy="-45" rx="35.3216" ry="18"/>
<text text-anchor="middle" x="35" y="-40.8" font-family="Times,serif" font-size="14.00">HTML</text>
</g>
<!-- head -->
<g id="node2" class="node"><title>head</title>
<ellipse fill="none" stroke="black" cx="134" cy="-72" rx="27" ry="18"/>
<text text-anchor="middle" x="134" y="-67.8" font-family="Times,serif" font-size="14.00">head</text>
</g>
<!-- HTML&#45;&gt;head -->
<g id="edge1" class="edge"><title>HTML&#45;&gt;head</title>
<path fill="none" stroke="black" d="M66.1597,-53.395C76.5274,-56.2808 88.2065,-59.5317 98.8674,-62.4992"/>
<polygon fill="black" stroke="black" points="98.1284,-65.9265 108.701,-65.2363 100.006,-59.1828 98.1284,-65.9265"/>
</g>
<!-- body -->
<g id="node3" class="node"><title>body</title>
<ellipse fill="none" stroke="black" cx="134" cy="-18" rx="27.589" ry="18"/>
<text text-anchor="middle" x="134" y="-13.8" font-family="Times,serif" font-size="14.00">body</text>
</g>
<!-- HTML&#45;&gt;body -->
<g id="edge2" class="edge"><title>HTML&#45;&gt;body</title>
<path fill="none" stroke="black" d="M66.1597,-36.605C76.3588,-33.7661 87.827,-30.5739 98.3466,-27.6458"/>
<polygon fill="black" stroke="black" points="99.3741,-30.9929 108.069,-24.9395 97.497,-24.2493 99.3741,-30.9929"/>
</g>
<!-- metadata -->
<g id="node4" class="node"><title>metadata</title>
<polygon fill="none" stroke="black" points="265.026,-90 198.974,-90 198.974,-54 265.026,-54 265.026,-90"/>
<text text-anchor="middle" x="232" y="-67.8" font-family="Times,serif" font-size="14.00">metadata</text>
</g>
<!-- head&#45;&gt;metadata -->
<g id="edge3" class="edge"><title>head&#45;&gt;metadata</title>
<path fill="none" stroke="black" d="M161.232,-72C172.78,-72 186.459,-72 198.633,-72"/>
</g>
<!-- content -->
<g id="node5" class="node"><title>content</title>
<polygon fill="none" stroke="black" points="260.707,-36 203.293,-36 203.293,-0 260.707,-0 260.707,-36"/>
<text text-anchor="middle" x="232" y="-13.8" font-family="Times,serif" font-size="14.00">content</text>
</g>
<!-- body&#45;&gt;content -->
<g id="edge4" class="edge"><title>body&#45;&gt;content</title>
<path fill="none" stroke="black" d="M161.997,-18C174.863,-18 190.237,-18 203.205,-18"/>
</g>
</g>
</svg>
