<?xml version="1.0" encoding="UTF-8" standalone="no"?>
<!DOCTYPE svg PUBLIC "-//W3C//DTD SVG 1.1//EN"
 "http://www.w3.org/Graphics/SVG/1.1/DTD/svg11.dtd">
<!-- Generated by graphviz version 2.36.0 (20140111.2315)
 -->
<!-- Title: %3 Pages: 1 -->
<svg width="427pt" height="234pt"
 viewBox="0.00 0.00 427.00 234.00" xmlns="http://www.w3.org/2000/svg" xmlns:xlink="http://www.w3.org/1999/xlink">
<g id="graph0" class="graph" transform="scale(1 1) rotate(0) translate(4 230)">
<title>%3</title>
<!-- jQuery -->
<g id="node1" class="node"><title>jQuery</title>
<ellipse fill="none" stroke="black" cx="211" cy="-200" rx="44.1594" ry="25.4118"/>
<text text-anchor="middle" x="211" y="-202.8" font-family="Times,serif" font-size="14.00">jQuery&#39;s</text>
<text text-anchor="middle" x="211" y="-188.8" font-family="Times,serif" font-size="14.00">ideas</text>
</g>
<!-- select -->
<g id="node2" class="node"><title>select</title>
<ellipse fill="none" stroke="black" cx="57" cy="-112" rx="41.069" ry="18"/>
<text text-anchor="middle" x="57" y="-107.8" font-family="Times,serif" font-size="14.00">selectors</text>
</g>
<!-- jQuery&#45;&gt;select -->
<g id="edge1" class="edge"><title>jQuery&#45;&gt;select</title>
<path fill="none" stroke="black" d="M179.836,-181.597C153.891,-167.108 117.031,-146.524 90.4668,-131.689"/>
<polygon fill="black" stroke="black" points="91.9721,-128.521 81.5348,-126.701 88.5591,-134.633 91.9721,-128.521"/>
</g>
<!-- facade -->
<g id="node3" class="node"><title>facade</title>
<ellipse fill="none" stroke="black" cx="162" cy="-112" rx="33.2616" ry="18"/>
<text text-anchor="middle" x="162" y="-107.8" font-family="Times,serif" font-size="14.00">façade</text>
</g>
<!-- jQuery&#45;&gt;facade -->
<g id="edge2" class="edge"><title>jQuery&#45;&gt;facade</title>
<path fill="none" stroke="black" d="M197.611,-175.5C191.037,-163.963 183.11,-150.05 176.405,-138.282"/>
<polygon fill="black" stroke="black" points="179.331,-136.347 171.339,-129.391 173.249,-139.812 179.331,-136.347"/>
</g>
<!-- implicit -->
<g id="node4" class="node"><title>implicit</title>
<ellipse fill="none" stroke="black" cx="260" cy="-112" rx="42.1643" ry="25.4118"/>
<text text-anchor="middle" x="260" y="-114.8" font-family="Times,serif" font-size="14.00">implicit</text>
<text text-anchor="middle" x="260" y="-100.8" font-family="Times,serif" font-size="14.00">looping</text>
</g>
<!-- jQuery&#45;&gt;implicit -->
<g id="edge3" class="edge"><title>jQuery&#45;&gt;implicit</title>
<path fill="none" stroke="black" d="M224.389,-175.5C229.726,-166.133 235.956,-155.2 241.699,-145.121"/>
<polygon fill="black" stroke="black" points="244.887,-146.595 246.796,-136.174 238.805,-143.13 244.887,-146.595"/>
</g>
<!-- chain -->
<g id="node5" class="node"><title>chain</title>
<ellipse fill="none" stroke="black" cx="372" cy="-112" rx="40.3368" ry="18"/>
<text text-anchor="middle" x="372" y="-107.8" font-family="Times,serif" font-size="14.00">chaining</text>
</g>
<!-- jQuery&#45;&gt;chain -->
<g id="edge4" class="edge"><title>jQuery&#45;&gt;chain</title>
<path fill="none" stroke="black" d="M242.808,-182.009C270.308,-167.32 309.951,-146.144 338.056,-131.131"/>
<polygon fill="black" stroke="black" points="339.94,-134.093 347.111,-126.295 336.642,-127.919 339.94,-134.093"/>
</g>
<!-- selectfoo -->
<g id="node7" class="node"><title>selectfoo</title>
<polygon fill="none" stroke="black" points="96.3551,-50 -0.355074,-50 -0.355074,-0 96.3551,-0 96.3551,-50"/>
<text text-anchor="middle" x="48" y="-34.8" font-family="Times,serif" font-size="14.00">powerful</text>
<text text-anchor="middle" x="48" y="-20.8" font-family="Times,serif" font-size="14.00">alternative</text>
<text text-anchor="middle" x="48" y="-6.8" font-family="Times,serif" font-size="14.00">node selection</text>
</g>
<!-- select&#45;&gt;selectfoo -->
<g id="edge6" class="edge"><title>select&#45;&gt;selectfoo</title>
<path fill="none" stroke="black" d="M55.1787,-93.799C53.8535,-81.2833 52.0411,-64.1655 50.5689,-50.2616"/>
</g>
<!-- facadefoo -->
<g id="node6" class="node"><title>facadefoo</title>
<polygon fill="none" stroke="black" points="204.01,-43 113.99,-43 113.99,-7 204.01,-7 204.01,-43"/>
<text text-anchor="middle" x="159" y="-27.8" font-family="Times,serif" font-size="14.00">abstracting</text>
<text text-anchor="middle" x="159" y="-13.8" font-family="Times,serif" font-size="14.00">browser diffs</text>
</g>
<!-- facade&#45;&gt;facadefoo -->
<g id="edge5" class="edge"><title>facade&#45;&gt;facadefoo</title>
<path fill="none" stroke="black" d="M161.393,-93.799C160.872,-79.0519 160.126,-57.9152 159.606,-43.1754"/>
</g>
<!-- implicitfoo -->
<g id="node8" class="node"><title>implicitfoo</title>
<polygon fill="none" stroke="black" points="311.408,-50 222.592,-50 222.592,-0 311.408,-0 311.408,-50"/>
<text text-anchor="middle" x="267" y="-34.8" font-family="Times,serif" font-size="14.00">manipulating</text>
<text text-anchor="middle" x="267" y="-20.8" font-family="Times,serif" font-size="14.00">selections</text>
<text text-anchor="middle" x="267" y="-6.8" font-family="Times,serif" font-size="14.00">with ease</text>
</g>
<!-- implicit&#45;&gt;implicitfoo -->
<g id="edge7" class="edge"><title>implicit&#45;&gt;implicitfoo</title>
<path fill="none" stroke="black" d="M262.025,-86.4145C262.961,-75.0393 264.071,-61.5685 265.004,-50.2367"/>
</g>
<!-- chainfoo -->
<g id="node9" class="node"><title>chainfoo</title>
<polygon fill="none" stroke="black" points="419.408,-50 330.592,-50 330.592,-0 419.408,-0 419.408,-50"/>
<text text-anchor="middle" x="375" y="-34.8" font-family="Times,serif" font-size="14.00">connecting</text>
<text text-anchor="middle" x="375" y="-20.8" font-family="Times,serif" font-size="14.00">selection &amp;</text>
<text text-anchor="middle" x="375" y="-6.8" font-family="Times,serif" font-size="14.00">manipulation</text>
</g>
<!-- chain&#45;&gt;chainfoo -->
<g id="edge8" class="edge"><title>chain&#45;&gt;chainfoo</title>
<path fill="none" stroke="black" d="M372.607,-93.799C373.049,-81.2833 373.653,-64.1655 374.144,-50.2616"/>
</g>
</g>
</svg>
