<?xml version="1.0" encoding="UTF-8" standalone="no"?>
<!DOCTYPE svg PUBLIC "-//W3C//DTD SVG 1.1//EN"
 "http://www.w3.org/Graphics/SVG/1.1/DTD/svg11.dtd">
<!-- Generated by graphviz version 2.36.0 (20140111.2315)
 -->
<!-- Title: %3 Pages: 1 -->
<svg width="262pt" height="116pt"
 viewBox="0.00 0.00 262.00 116.00" xmlns="http://www.w3.org/2000/svg" xmlns:xlink="http://www.w3.org/1999/xlink">
<g id="graph0" class="graph" transform="scale(1 1) rotate(0) translate(4 112)">
<title>%3</title>
<!-- object -->
<g id="node1" class="node"><title>object</title>
<ellipse fill="none" stroke="black" cx="115" cy="-90" rx="31.5709" ry="18"/>
<text text-anchor="middle" x="115" y="-85.8" font-family="Times,serif" font-size="14.00">object</text>
</g>
<!-- type -->
<g id="node2" class="node"><title>type</title>
<ellipse fill="none" stroke="black" cx="27" cy="-18" rx="27" ry="18"/>
<text text-anchor="middle" x="27" y="-13.8" font-family="Times,serif" font-size="14.00">type</text>
</g>
<!-- object&#45;&gt;type -->
<g id="edge1" class="edge"><title>object&#45;&gt;type</title>
<path fill="none" stroke="black" d="M97.1919,-74.8345C84.1772,-64.4819 66.3557,-50.3057 51.9272,-38.8284"/>
<polygon fill="black" stroke="black" points="53.8908,-35.9181 43.8859,-32.432 49.5331,-41.3964 53.8908,-35.9181"/>
</g>
<!-- attribute -->
<g id="node3" class="node"><title>attribute</title>
<ellipse fill="none" stroke="black" cx="115" cy="-18" rx="43.0226" ry="18"/>
<text text-anchor="middle" x="115" y="-13.8" font-family="Times,serif" font-size="14.00">attributes</text>
</g>
<!-- object&#45;&gt;attribute -->
<g id="edge2" class="edge"><title>object&#45;&gt;attribute</title>
<path fill="none" stroke="black" d="M115,-71.6966C115,-63.9827 115,-54.7125 115,-46.1124"/>
<polygon fill="black" stroke="black" points="118.5,-46.1043 115,-36.1043 111.5,-46.1044 118.5,-46.1043"/>
</g>
<!-- children -->
<g id="node4" class="node"><title>children</title>
<ellipse fill="none" stroke="black" cx="215" cy="-18" rx="39.122" ry="18"/>
<text text-anchor="middle" x="215" y="-13.8" font-family="Times,serif" font-size="14.00">children</text>
</g>
<!-- object&#45;&gt;children -->
<g id="edge3" class="edge"><title>object&#45;&gt;children</title>
<path fill="none" stroke="black" d="M134.281,-75.5033C148.974,-65.2185 169.444,-50.8891 186.094,-39.2344"/>
<polygon fill="black" stroke="black" points="188.216,-42.0212 194.401,-33.4192 184.202,-36.2865 188.216,-42.0212"/>
</g>
</g>
</svg>
