<?xml version="1.0" encoding="UTF-8" standalone="no"?>
<!DOCTYPE svg PUBLIC "-//W3C//DTD SVG 1.1//EN"
 "http://www.w3.org/Graphics/SVG/1.1/DTD/svg11.dtd">
<!-- Generated by graphviz version 2.36.0 (20140111.2315)
 -->
<!-- Title: %3 Pages: 1 -->
<svg width="652pt" height="260pt"
 viewBox="0.00 0.00 652.00 260.00" xmlns="http://www.w3.org/2000/svg" xmlns:xlink="http://www.w3.org/1999/xlink">
<g id="graph0" class="graph" transform="scale(1 1) rotate(0) translate(4 256)">
<title>%3</title>
<polygon fill="white" stroke="none" points="-4,4 -4,-256 648,-256 648,4 -4,4"/>
<!-- col0 -->
<g id="node1" class="node"><title>col0</title>
<ellipse fill="none" stroke="none" cx="44" cy="-18" rx="27" ry="18"/>
<text text-anchor="middle" x="44" y="-13.8" font-family="Times,serif" font-size="14.00" fill="#fffffe">col0</text>
</g>
<!-- col1 -->
<g id="node2" class="node"><title>col1</title>
<ellipse fill="none" stroke="none" cx="151" cy="-18" rx="27" ry="18"/>
<text text-anchor="middle" x="151" y="-13.8" font-family="Times,serif" font-size="14.00" fill="#fffffe">col1</text>
</g>
<!-- col0&#45;&gt;col1 -->
<g id="edge7" class="edge"><title>col0&#45;&gt;col1</title>
<path fill="none" stroke="none" d="M71.2251,-18C84.0038,-18 99.5808,-18 113.499,-18"/>
<polygon fill="none" stroke="none" points="113.745,-21.5001 123.745,-18 113.745,-14.5001 113.745,-21.5001"/>
</g>
<!-- col2 -->
<g id="node3" class="node"><title>col2</title>
<ellipse fill="none" stroke="none" cx="241" cy="-18" rx="27" ry="18"/>
<text text-anchor="middle" x="241" y="-13.8" font-family="Times,serif" font-size="14.00" fill="#fffffe">col2</text>
</g>
<!-- col1&#45;&gt;col2 -->
<g id="edge8" class="edge"><title>col1&#45;&gt;col2</title>
<path fill="none" stroke="none" d="M178.403,-18C186.393,-18 195.311,-18 203.824,-18"/>
<polygon fill="none" stroke="none" points="203.919,-21.5001 213.919,-18 203.919,-14.5001 203.919,-21.5001"/>
</g>
<!-- col3 -->
<g id="node4" class="node"><title>col3</title>
<ellipse fill="none" stroke="none" cx="331" cy="-18" rx="27" ry="18"/>
<text text-anchor="middle" x="331" y="-13.8" font-family="Times,serif" font-size="14.00" fill="#fffffe">col3</text>
</g>
<!-- col2&#45;&gt;col3 -->
<g id="edge9" class="edge"><title>col2&#45;&gt;col3</title>
<path fill="none" stroke="none" d="M268.403,-18C276.393,-18 285.311,-18 293.824,-18"/>
<polygon fill="none" stroke="none" points="293.919,-21.5001 303.919,-18 293.919,-14.5001 293.919,-21.5001"/>
</g>
<!-- col4 -->
<g id="node5" class="node"><title>col4</title>
<ellipse fill="none" stroke="none" cx="422" cy="-18" rx="27" ry="18"/>
<text text-anchor="middle" x="422" y="-13.8" font-family="Times,serif" font-size="14.00" fill="#fffffe">col4</text>
</g>
<!-- col3&#45;&gt;col4 -->
<g id="edge10" class="edge"><title>col3&#45;&gt;col4</title>
<path fill="none" stroke="none" d="M358.222,-18C366.551,-18 375.914,-18 384.816,-18"/>
<polygon fill="none" stroke="none" points="384.966,-21.5001 394.966,-18 384.966,-14.5001 384.966,-21.5001"/>
</g>
<!-- col5 -->
<g id="node6" class="node"><title>col5</title>
<ellipse fill="none" stroke="none" cx="519" cy="-18" rx="27" ry="18"/>
<text text-anchor="middle" x="519" y="-13.8" font-family="Times,serif" font-size="14.00" fill="#fffffe">col5</text>
</g>
<!-- col4&#45;&gt;col5 -->
<g id="edge11" class="edge"><title>col4&#45;&gt;col5</title>
<path fill="none" stroke="none" d="M449.211,-18C459.283,-18 470.965,-18 481.811,-18"/>
<polygon fill="none" stroke="none" points="481.875,-21.5001 491.875,-18 481.875,-14.5001 481.875,-21.5001"/>
</g>
<!-- col6 -->
<g id="node7" class="node"><title>col6</title>
<ellipse fill="none" stroke="none" cx="616" cy="-18" rx="27" ry="18"/>
<text text-anchor="middle" x="616" y="-13.8" font-family="Times,serif" font-size="14.00" fill="#fffffe">col6</text>
</g>
<!-- col5&#45;&gt;col6 -->
<g id="edge12" class="edge"><title>col5&#45;&gt;col6</title>
<path fill="none" stroke="none" d="M546.211,-18C556.283,-18 567.965,-18 578.811,-18"/>
<polygon fill="none" stroke="none" points="578.875,-21.5001 588.875,-18 578.875,-14.5001 578.875,-21.5001"/>
</g>
<!-- row1start -->
<g id="node8" class="node"><title>row1start</title>
<ellipse fill="none" stroke="black" cx="44" cy="-234" rx="44.0078" ry="18"/>
<text text-anchor="middle" x="44" y="-229.8" font-family="Times,serif" font-size="14.00">hyakushō</text>
</g>
<!-- row2start -->
<g id="node9" class="node"><title>row2start</title>
<ellipse fill="none" stroke="black" cx="44" cy="-180" rx="44.0078" ry="18"/>
<text text-anchor="middle" x="44" y="-175.8" font-family="Times,serif" font-size="14.00">hyakushō</text>
</g>
<!-- row1start&#45;&gt;row2start -->
<g id="edge1" class="edge"><title>row1start&#45;&gt;row2start</title>
<path fill="none" stroke="none" d="M44,-215.79C44,-213.308 44,-210.826 44,-208.344"/>
<polygon fill="none" stroke="none" points="47.5001,-208.141 44,-198.141 40.5001,-208.141 47.5001,-208.141"/>
</g>
<!-- HTML -->
<g id="node16" class="node"><title>HTML</title>
<polygon fill="none" stroke="black" points="449.663,-252 394.337,-252 394.337,-216 449.663,-216 449.663,-252"/>
<text text-anchor="middle" x="422" y="-229.8" font-family="Times,serif" font-size="14.00">HTML</text>
</g>
<!-- row1start&#45;&gt;HTML -->
<g id="edge13" class="edge"><title>row1start&#45;&gt;HTML</title>
<path fill="none" stroke="black" d="M88.132,-234C166.448,-234 329.867,-234 394.176,-234"/>
</g>
<!-- row3start -->
<g id="node10" class="node"><title>row3start</title>
<ellipse fill="none" stroke="black" cx="44" cy="-126" rx="44.0078" ry="18"/>
<text text-anchor="middle" x="44" y="-121.8" font-family="Times,serif" font-size="14.00">hyakushō</text>
</g>
<!-- row2start&#45;&gt;row3start -->
<g id="edge2" class="edge"><title>row2start&#45;&gt;row3start</title>
<path fill="none" stroke="none" d="M44,-161.79C44,-159.308 44,-156.826 44,-154.344"/>
<polygon fill="none" stroke="none" points="47.5001,-154.141 44,-144.141 40.5001,-154.141 47.5001,-154.141"/>
</g>
<!-- CSS -->
<g id="node17" class="node"><title>CSS</title>
<polygon fill="none" stroke="black" points="178,-198 124,-198 124,-162 178,-162 178,-198"/>
<text text-anchor="middle" x="151" y="-175.8" font-family="Times,serif" font-size="14.00">CSS</text>
</g>
<!-- row2start&#45;&gt;CSS -->
<g id="edge15" class="edge"><title>row2start&#45;&gt;CSS</title>
<path fill="none" stroke="black" d="M88.0105,-180C100.13,-180 112.948,-180 123.763,-180"/>
</g>
<!-- row4start -->
<g id="node11" class="node"><title>row4start</title>
<ellipse fill="none" stroke="black" cx="44" cy="-72" rx="44.0078" ry="18"/>
<text text-anchor="middle" x="44" y="-67.8" font-family="Times,serif" font-size="14.00">hyakushō</text>
</g>
<!-- row3start&#45;&gt;row4start -->
<g id="edge3" class="edge"><title>row3start&#45;&gt;row4start</title>
<path fill="none" stroke="none" d="M44,-107.79C44,-105.308 44,-102.826 44,-100.344"/>
<polygon fill="none" stroke="none" points="47.5001,-100.141 44,-90.1406 40.5001,-100.141 47.5001,-100.141"/>
</g>
<!-- JS -->
<g id="node18" class="node"><title>JS</title>
<polygon fill="none" stroke="black" points="358,-144 304,-144 304,-108 358,-108 358,-144"/>
<text text-anchor="middle" x="331" y="-121.8" font-family="Times,serif" font-size="14.00">JS</text>
</g>
<!-- row3start&#45;&gt;JS -->
<g id="edge17" class="edge"><title>row3start&#45;&gt;JS</title>
<path fill="none" stroke="black" d="M88.2854,-126C148.237,-126 254.701,-126 303.828,-126"/>
</g>
<!-- curiosity -->
<g id="node19" class="node"><title>curiosity</title>
<polygon fill="none" stroke="black" points="551.493,-90 486.507,-90 486.507,-54 551.493,-54 551.493,-90"/>
<text text-anchor="middle" x="519" y="-74.8" font-family="Times,serif" font-size="14.00">webtech</text>
<text text-anchor="middle" x="519" y="-60.8" font-family="Times,serif" font-size="14.00">curiosity</text>
</g>
<!-- row4start&#45;&gt;curiosity -->
<g id="edge19" class="edge"><title>row4start&#45;&gt;curiosity</title>
<path fill="none" stroke="black" d="M88.3717,-72C127.888,-72 187.865,-72 240,-72 240,-72 240,-72 332,-72 386.25,-72 449.4,-72 486.406,-72"/>
</g>
<!-- row1end -->
<g id="node12" class="node"><title>row1end</title>
<ellipse fill="none" stroke="black" cx="616" cy="-234" rx="27.5804" ry="18"/>
<text text-anchor="middle" x="616" y="-229.8" font-family="Times,serif" font-size="14.00">ninja</text>
</g>
<!-- row2end -->
<g id="node13" class="node"><title>row2end</title>
<ellipse fill="none" stroke="black" cx="616" cy="-180" rx="27.5804" ry="18"/>
<text text-anchor="middle" x="616" y="-175.8" font-family="Times,serif" font-size="14.00">ninja</text>
</g>
<!-- row1end&#45;&gt;row2end -->
<g id="edge4" class="edge"><title>row1end&#45;&gt;row2end</title>
<path fill="none" stroke="none" d="M616,-215.79C616,-213.308 616,-210.826 616,-208.344"/>
<polygon fill="none" stroke="none" points="619.5,-208.141 616,-198.141 612.5,-208.141 619.5,-208.141"/>
</g>
<!-- row3end -->
<g id="node14" class="node"><title>row3end</title>
<ellipse fill="none" stroke="black" cx="616" cy="-126" rx="27.5804" ry="18"/>
<text text-anchor="middle" x="616" y="-121.8" font-family="Times,serif" font-size="14.00">ninja</text>
</g>
<!-- row2end&#45;&gt;row3end -->
<g id="edge5" class="edge"><title>row2end&#45;&gt;row3end</title>
<path fill="none" stroke="none" d="M616,-161.79C616,-159.308 616,-156.826 616,-154.344"/>
<polygon fill="none" stroke="none" points="619.5,-154.141 616,-144.141 612.5,-154.141 619.5,-154.141"/>
</g>
<!-- row4end -->
<g id="node15" class="node"><title>row4end</title>
<ellipse fill="none" stroke="black" cx="616" cy="-72" rx="27.5804" ry="18"/>
<text text-anchor="middle" x="616" y="-67.8" font-family="Times,serif" font-size="14.00">ninja</text>
</g>
<!-- row3end&#45;&gt;row4end -->
<g id="edge6" class="edge"><title>row3end&#45;&gt;row4end</title>
<path fill="none" stroke="none" d="M616,-107.79C616,-105.308 616,-102.826 616,-100.344"/>
<polygon fill="none" stroke="none" points="619.5,-100.141 616,-90.1406 612.5,-100.141 619.5,-100.141"/>
</g>
<!-- HTML&#45;&gt;row1end -->
<g id="edge14" class="edge"><title>HTML&#45;&gt;row1end</title>
<path fill="none" stroke="black" d="M449.697,-234C486.173,-234 551.231,-234 587.911,-234"/>
</g>
<!-- CSS&#45;&gt;row2end -->
<g id="edge16" class="edge"><title>CSS&#45;&gt;row2end</title>
<path fill="none" stroke="black" d="M178.239,-180C212.96,-180 276.075,-180 330,-180 330,-180 330,-180 423,-180 481.833,-180 550.807,-180 587.973,-180"/>
</g>
<!-- JS&#45;&gt;row3end -->
<g id="edge18" class="edge"><title>JS&#45;&gt;row3end</title>
<path fill="none" stroke="black" d="M358.117,-126C411.756,-126 533.84,-126 588.121,-126"/>
</g>
<!-- curiosity&#45;&gt;row4end -->
<g id="edge20" class="edge"><title>curiosity&#45;&gt;row4end</title>
<path fill="none" stroke="black" d="M551.634,-72C563.4,-72 576.635,-72 587.954,-72"/>
</g>
</g>
</svg>
