<?xml version="1.0" encoding="UTF-8" standalone="no"?>
<!DOCTYPE svg PUBLIC "-//W3C//DTD SVG 1.1//EN"
 "http://www.w3.org/Graphics/SVG/1.1/DTD/svg11.dtd">
<!-- Generated by graphviz version 2.36.0 (20140111.2315)
 -->
<!-- Title: %3 Pages: 1 -->
<svg width="498pt" height="202pt"
 viewBox="0.00 0.00 498.00 202.00" xmlns="http://www.w3.org/2000/svg" xmlns:xlink="http://www.w3.org/1999/xlink">
<g id="graph0" class="graph" transform="scale(1 1) rotate(0) translate(4 198)">
<title>%3</title>
<!-- p -->
<g id="node1" class="node"><title>p</title>
<ellipse fill="none" stroke="black" cx="243" cy="-176" rx="27" ry="18"/>
<text text-anchor="middle" x="243" y="-171.8" font-family="Times,serif" font-size="14.00">&lt;p&gt;</text>
</g>
<!-- note1 -->
<g id="node2" class="node"><title>note1</title>
<ellipse fill="none" stroke="black" stroke-dasharray="5,2" cx="27" cy="-97" rx="27" ry="20.5123"/>
<text text-anchor="middle" x="27" y="-96.3" font-family="Times,serif" font-size="14.00">♬</text>
</g>
<!-- p&#45;&gt;note1 -->
<g id="edge1" class="edge"><title>p&#45;&gt;note1</title>
<path fill="none" stroke="black" stroke-dasharray="5,2" d="M217.382,-170.012C181.661,-162.494 115.385,-146.481 63,-122 60.1652,-120.675 57.2998,-119.146 54.4888,-117.514"/>
<polygon fill="black" stroke="black" points="56.1327,-114.414 45.7991,-112.076 52.4192,-120.348 56.1327,-114.414"/>
</g>
<!-- Eeexiiit -->
<g id="node3" class="node"><title>Eeexiiit</title>
<ellipse fill="none" stroke="black" cx="110" cy="-97" rx="37.4126" ry="18"/>
<text text-anchor="middle" x="110" y="-92.8" font-family="Times,serif" font-size="14.00">Eeexiiit</text>
</g>
<!-- p&#45;&gt;Eeexiiit -->
<g id="edge2" class="edge"><title>p&#45;&gt;Eeexiiit</title>
<path fill="none" stroke="black" d="M223.089,-163.472C201.661,-151.067 167.265,-131.154 142.027,-116.542"/>
<polygon fill="black" stroke="black" points="143.591,-113.403 133.183,-111.422 140.084,-119.461 143.591,-113.403"/>
</g>
<!-- em1 -->
<g id="node4" class="node"><title>em1</title>
<ellipse fill="none" stroke="black" cx="196" cy="-97" rx="30.3303" ry="18"/>
<text text-anchor="middle" x="196" y="-92.8" font-family="Times,serif" font-size="14.00">&lt;em&gt;</text>
</g>
<!-- p&#45;&gt;em1 -->
<g id="edge3" class="edge"><title>p&#45;&gt;em1</title>
<path fill="none" stroke="black" d="M233.262,-159.046C226.877,-148.585 218.399,-134.696 211.143,-122.809"/>
<polygon fill="black" stroke="black" points="214.085,-120.911 205.888,-114.199 208.11,-124.558 214.085,-120.911"/>
</g>
<!-- Eeenteeer -->
<g id="node6" class="node"><title>Eeenteeer</title>
<ellipse fill="none" stroke="black" cx="290" cy="-97" rx="44.4378" ry="18"/>
<text text-anchor="middle" x="290" y="-92.8" font-family="Times,serif" font-size="14.00">Eeenteeer</text>
</g>
<!-- p&#45;&gt;Eeenteeer -->
<g id="edge5" class="edge"><title>p&#45;&gt;Eeenteeer</title>
<path fill="none" stroke="black" d="M252.738,-159.046C259.038,-148.725 267.374,-135.068 274.564,-123.289"/>
<polygon fill="black" stroke="black" points="277.564,-125.092 279.786,-114.733 271.589,-121.445 277.564,-125.092"/>
</g>
<!-- em2 -->
<g id="node7" class="node"><title>em2</title>
<ellipse fill="none" stroke="black" cx="384" cy="-97" rx="30.3303" ry="18"/>
<text text-anchor="middle" x="384" y="-92.8" font-family="Times,serif" font-size="14.00">&lt;em&gt;</text>
</g>
<!-- p&#45;&gt;em2 -->
<g id="edge6" class="edge"><title>p&#45;&gt;em2</title>
<path fill="none" stroke="black" d="M263.822,-164.291C284.146,-153.761 315.883,-137.114 343,-122 346.728,-119.922 350.625,-117.703 354.469,-115.486"/>
<polygon fill="black" stroke="black" points="356.358,-118.436 363.24,-110.381 352.837,-112.386 356.358,-118.436"/>
</g>
<!-- note2 -->
<g id="node9" class="node"><title>note2</title>
<ellipse fill="none" stroke="black" stroke-dasharray="5,2" cx="462" cy="-97" rx="28.4559" ry="24.4317"/>
<text text-anchor="middle" x="462" y="-99.1" font-family="Times,serif" font-size="14.00">♫♩</text>
</g>
<!-- p&#45;&gt;note2 -->
<g id="edge8" class="edge"><title>p&#45;&gt;note2</title>
<path fill="none" stroke="black" stroke-dasharray="5,2" d="M268.495,-169.742C304.071,-161.907 370.179,-145.525 423,-122 425.814,-120.747 428.67,-119.323 431.49,-117.809"/>
<polygon fill="black" stroke="black" points="433.351,-120.776 440.284,-112.764 429.868,-114.705 433.351,-120.776"/>
</g>
<!-- light -->
<g id="node5" class="node"><title>light</title>
<ellipse fill="none" stroke="black" cx="196" cy="-18" rx="27" ry="18"/>
<text text-anchor="middle" x="196" y="-13.8" font-family="Times,serif" font-size="14.00">light</text>
</g>
<!-- em1&#45;&gt;light -->
<g id="edge4" class="edge"><title>em1&#45;&gt;light</title>
<path fill="none" stroke="black" d="M196,-78.9112C196,-69.341 196,-57.1828 196,-46.3234"/>
<polygon fill="black" stroke="black" points="199.5,-46.041 196,-36.041 192.5,-46.0411 199.5,-46.041"/>
</g>
<!-- niiight -->
<g id="node8" class="node"><title>niiight</title>
<ellipse fill="none" stroke="black" cx="384" cy="-18" rx="33.3006" ry="18"/>
<text text-anchor="middle" x="384" y="-13.8" font-family="Times,serif" font-size="14.00">niiight</text>
</g>
<!-- em2&#45;&gt;niiight -->
<g id="edge7" class="edge"><title>em2&#45;&gt;niiight</title>
<path fill="none" stroke="black" d="M384,-78.9112C384,-69.341 384,-57.1828 384,-46.3234"/>
<polygon fill="black" stroke="black" points="387.5,-46.041 384,-36.041 380.5,-46.0411 387.5,-46.041"/>
</g>
</g>
</svg>
