<?xml version="1.0" encoding="UTF-8" standalone="no"?>
<!DOCTYPE svg PUBLIC "-//W3C//DTD SVG 1.1//EN"
 "http://www.w3.org/Graphics/SVG/1.1/DTD/svg11.dtd">
<!-- Generated by graphviz version 2.36.0 (20140111.2315)
 -->
<!-- Title: %3 Pages: 1 -->
<svg width="444pt" height="188pt"
 viewBox="0.00 0.00 444.00 188.00" xmlns="http://www.w3.org/2000/svg" xmlns:xlink="http://www.w3.org/1999/xlink">
<g id="graph0" class="graph" transform="scale(1 1) rotate(0) translate(4 184)">
<title>%3</title>
<!-- grandpa -->
<g id="node1" class="node"><title>grandpa</title>
<ellipse fill="none" stroke="black" cx="257" cy="-162" rx="38.383" ry="18"/>
<text text-anchor="middle" x="257" y="-157.8" font-family="Times,serif" font-size="14.00">grandpa</text>
</g>
<!-- dad -->
<g id="node2" class="node"><title>dad</title>
<ellipse fill="none" stroke="black" cx="160" cy="-90" rx="27" ry="18"/>
<text text-anchor="middle" x="160" y="-85.8" font-family="Times,serif" font-size="14.00">dad</text>
</g>
<!-- grandpa&#45;&gt;dad -->
<g id="edge1" class="edge"><title>grandpa&#45;&gt;dad</title>
<path fill="none" stroke="black" d="M236.902,-146.496C222.2,-135.886 202.122,-121.397 186.168,-109.884"/>
<polygon fill="black" stroke="black" points="187.947,-106.852 177.79,-103.838 183.85,-112.528 187.947,-106.852"/>
</g>
<!-- auntie -->
<g id="node4" class="node"><title>auntie</title>
<ellipse fill="none" stroke="black" cx="306" cy="-90" rx="31.5709" ry="18"/>
<text text-anchor="middle" x="306" y="-85.8" font-family="Times,serif" font-size="14.00">auntie</text>
</g>
<!-- grandpa&#45;&gt;auntie -->
<g id="edge3" class="edge"><title>grandpa&#45;&gt;auntie</title>
<path fill="none" stroke="black" d="M268.365,-144.765C274.425,-136.106 282.009,-125.273 288.777,-115.604"/>
<polygon fill="black" stroke="black" points="291.83,-117.347 294.697,-107.147 286.095,-113.333 291.83,-117.347"/>
</g>
<!-- me -->
<g id="node3" class="node"><title>me</title>
<ellipse fill="none" stroke="black" cx="27" cy="-18" rx="27" ry="18"/>
<text text-anchor="middle" x="27" y="-13.8" font-family="Times,serif" font-size="14.00">me</text>
</g>
<!-- dad&#45;&gt;me -->
<g id="edge2" class="edge"><title>dad&#45;&gt;me</title>
<path fill="none" stroke="black" d="M139.51,-78.2159C117.413,-66.5858 82.0213,-47.9586 56.836,-34.7031"/>
<polygon fill="black" stroke="black" points="58.2115,-31.472 47.7322,-29.9117 54.9512,-37.6664 58.2115,-31.472"/>
</g>
<!-- brother1 -->
<g id="node7" class="node"><title>brother1</title>
<ellipse fill="none" stroke="black" cx="112" cy="-18" rx="40.0987" ry="18"/>
<text text-anchor="middle" x="112" y="-13.8" font-family="Times,serif" font-size="14.00">brother1</text>
</g>
<!-- dad&#45;&gt;brother1 -->
<g id="edge6" class="edge"><title>dad&#45;&gt;brother1</title>
<path fill="none" stroke="black" d="M149.108,-73.1159C143.178,-64.4685 135.709,-53.5754 129.028,-43.833"/>
<polygon fill="black" stroke="black" points="131.724,-41.5749 123.182,-35.307 125.951,-45.5337 131.724,-41.5749"/>
</g>
<!-- brother2 -->
<g id="node8" class="node"><title>brother2</title>
<ellipse fill="none" stroke="black" cx="210" cy="-18" rx="40.0987" ry="18"/>
<text text-anchor="middle" x="210" y="-13.8" font-family="Times,serif" font-size="14.00">brother2</text>
</g>
<!-- dad&#45;&gt;brother2 -->
<g id="edge7" class="edge"><title>dad&#45;&gt;brother2</title>
<path fill="none" stroke="black" d="M171.097,-73.4647C177.327,-64.7419 185.247,-53.6541 192.313,-43.7624"/>
<polygon fill="black" stroke="black" points="195.273,-45.6389 198.238,-35.4672 189.577,-41.5702 195.273,-45.6389"/>
</g>
<!-- cousin1 -->
<g id="node5" class="node"><title>cousin1</title>
<ellipse fill="none" stroke="black" cx="306" cy="-18" rx="37.4255" ry="18"/>
<text text-anchor="middle" x="306" y="-13.8" font-family="Times,serif" font-size="14.00">cousin1</text>
</g>
<!-- auntie&#45;&gt;cousin1 -->
<g id="edge4" class="edge"><title>auntie&#45;&gt;cousin1</title>
<path fill="none" stroke="black" d="M306,-71.6966C306,-63.9827 306,-54.7125 306,-46.1124"/>
<polygon fill="black" stroke="black" points="309.5,-46.1043 306,-36.1043 302.5,-46.1044 309.5,-46.1043"/>
</g>
<!-- cousin2 -->
<g id="node6" class="node"><title>cousin2</title>
<ellipse fill="none" stroke="black" cx="399" cy="-18" rx="37.4255" ry="18"/>
<text text-anchor="middle" x="399" y="-13.8" font-family="Times,serif" font-size="14.00">cousin2</text>
</g>
<!-- auntie&#45;&gt;cousin2 -->
<g id="edge5" class="edge"><title>auntie&#45;&gt;cousin2</title>
<path fill="none" stroke="black" d="M324.374,-75.1703C337.862,-65.0175 356.409,-51.0578 371.638,-39.5952"/>
<polygon fill="black" stroke="black" points="373.819,-42.3341 379.704,-33.524 369.609,-36.7413 373.819,-42.3341"/>
</g>
</g>
</svg>
