<?xml version="1.0" encoding="UTF-8" standalone="no"?>
<!DOCTYPE svg PUBLIC "-//W3C//DTD SVG 1.1//EN"
 "http://www.w3.org/Graphics/SVG/1.1/DTD/svg11.dtd">
<!-- Generated by graphviz version 2.36.0 (20140111.2315)
 -->
<!-- Title: %3 Pages: 1 -->
<svg width="294pt" height="188pt"
 viewBox="0.00 0.00 294.00 188.00" xmlns="http://www.w3.org/2000/svg" xmlns:xlink="http://www.w3.org/1999/xlink">
<g id="graph0" class="graph" transform="scale(1 1) rotate(0) translate(4 184)">
<title>%3</title>
<!-- truth -->
<g id="node1" class="node"><title>truth</title>
<ellipse fill="none" stroke="black" cx="117" cy="-162" rx="27" ry="18"/>
<text text-anchor="middle" x="117" y="-157.8" font-family="Times,serif" font-size="14.00">truth</text>
</g>
<!-- iAm -->
<g id="node2" class="node"><title>iAm</title>
<ellipse fill="none" stroke="black" cx="28" cy="-90" rx="27.9189" ry="18"/>
<text text-anchor="middle" x="28" y="-85.8" font-family="Times,serif" font-size="14.00">I am </text>
</g>
<!-- truth&#45;&gt;iAm -->
<g id="edge1" class="edge"><title>truth&#45;&gt;iAm</title>
<path fill="none" stroke="black" d="M100.26,-147.834C87.0042,-137.408 68.2769,-122.678 53.2089,-110.827"/>
<polygon fill="black" stroke="black" points="55.2961,-108.016 45.2722,-104.585 50.9686,-113.518 55.2961,-108.016"/>
</g>
<!-- emphasis -->
<g id="node3" class="node"><title>emphasis</title>
<ellipse fill="none" stroke="black" cx="117" cy="-90" rx="43.0291" ry="18"/>
<text text-anchor="middle" x="117" y="-85.8" font-family="Times,serif" font-size="14.00">emphasis</text>
</g>
<!-- truth&#45;&gt;emphasis -->
<g id="edge2" class="edge"><title>truth&#45;&gt;emphasis</title>
<path fill="none" stroke="black" d="M117,-143.697C117,-135.983 117,-126.712 117,-118.112"/>
<polygon fill="black" stroke="black" points="120.5,-118.104 117,-108.104 113.5,-118.104 120.5,-118.104"/>
</g>
<!-- good -->
<g id="node5" class="node"><title>good</title>
<ellipse fill="none" stroke="black" cx="232" cy="-90" rx="53.9809" ry="18"/>
<text text-anchor="middle" x="232" y="-85.8" font-family="Times,serif" font-size="14.00">good at this!</text>
</g>
<!-- truth&#45;&gt;good -->
<g id="edge4" class="edge"><title>truth&#45;&gt;good</title>
<path fill="none" stroke="black" d="M136.248,-149.284C153.181,-138.977 178.212,-123.74 198.435,-111.431"/>
<polygon fill="black" stroke="black" points="200.333,-114.373 207.056,-106.184 196.694,-108.393 200.333,-114.373"/>
</g>
<!-- really -->
<g id="node4" class="node"><title>really</title>
<ellipse fill="none" stroke="black" cx="117" cy="-18" rx="30.3576" ry="18"/>
<text text-anchor="middle" x="117" y="-13.8" font-family="Times,serif" font-size="14.00">really</text>
</g>
<!-- emphasis&#45;&gt;really -->
<g id="edge3" class="edge"><title>emphasis&#45;&gt;really</title>
<path fill="none" stroke="black" d="M117,-71.6966C117,-63.9827 117,-54.7125 117,-46.1124"/>
<polygon fill="black" stroke="black" points="120.5,-46.1043 117,-36.1043 113.5,-46.1044 120.5,-46.1043"/>
</g>
</g>
</svg>
